<svg width="77" height="66" viewBox="0 0 77 66" fill="none" xmlns="http://www.w3.org/2000/svg">
<g clip-path="url(#clip0_1_767)">
<path d="M76.8737 42.666C77.9403 52.2661 71.8658 61.0486 62.854 64.1362C60.0135 65.1997 56.9164 65.7486 53.9049 66.0002C53.0436 65.9944 52.1824 65.9258 51.3268 65.8858C46.9235 65.2568 42.5089 63.8903 38.8984 61.2258C43.4443 63.4157 49.2906 64.5078 53.7452 64.3249C58.3538 63.7302 63.065 62.4895 67.0006 59.9622C72.8868 56.2571 76.4003 49.6016 76.8794 42.666H76.8737Z" fill="#F4D09C"/>
<path d="M0 44.2953C1.02667 54.1241 7.48896 60.9968 16.9343 63.3468L18.9705 63.81C20.1341 64.1073 21.9079 64.1988 23.1114 64.3989C22.6722 64.3989 25.5241 64.3188 25.4385 64.3188C31.1764 63.6556 37.8099 61.4485 41.9108 56.8057C46.0745 52.2715 47.8084 45.759 46.8959 39.7096C45.7893 32.1908 41.9793 25.4324 37.7927 19.1543H39.059C33.5093 27.1192 27.9596 36.4848 29.203 46.5709C29.3855 47.9889 29.7163 49.3841 30.1669 50.7506C25.507 39.5839 31.57 27.5366 37.7927 18.2681C38.0779 17.8221 38.7738 17.8221 39.059 18.2681C42.0648 22.4706 44.7513 26.9533 46.7019 31.8249C50.3181 40.6702 50.0215 50.7906 43.2911 58.0808C38.7567 63.0667 31.9921 65.308 25.4613 65.9198L23.043 65.9313H23.003C22.9859 65.9313 22.9688 65.9313 22.9517 65.9313C21.7026 65.674 19.8831 65.5424 18.6739 65.1994L16.5636 64.6619C6.93 61.9288 0.35363 54.49 0 44.2953Z" fill="#F4D09C"/>
<path d="M48.8806 64.2332C61.1664 60.5796 67.5146 50.0589 64.6856 37.5142C61.3033 23.2598 50.2438 10.5321 40.4277 0C51.7268 9.64013 63.1 22.2135 66.5336 37.1196C69.4254 50.1675 62.1646 61.9175 48.8749 64.2332H48.8806Z" fill="#F4D09C"/>
<path d="M36.406 0.0458984C24.7762 12.4706 4.97289 34.9699 13.768 52.9522C15.251 55.9198 17.4811 58.5213 20.2531 60.4368C23.0308 62.4094 26.2534 63.6787 29.5445 64.5764C26.1108 64.079 22.7342 63.0384 19.7341 61.2315C15.1369 58.5099 11.7603 53.8614 10.4542 48.6811C6.0566 30.5901 23.6069 10.8467 36.406 0.0458984Z" fill="#F4D09C"/>
</g>
<defs>
<clipPath id="clip0_1_767">
<rect width="77" height="66" fill="white"/>
</clipPath>
</defs>
</svg>
